<svg xmlns="http://www.w3.org/2000/svg" viewBox="0 0 256 256"><defs><style>.cls-1{fill:#1d384d;}</style></defs><title>stocks</title><g id="icons_without_caption" data-name="icons without caption"><g id="STOCKS"><path class="cls-1" d="M134.61,90.32l-3,2.76-26,23.73L90.31,102.94l-25,21.76L51.36,112.19l-2.67,3L65.25,130l25-21.75,15.38,13.93L134.29,96l3-2.76A7.41,7.41,0,0,1,134.61,90.32Z"/><path class="cls-1" d="M182.58,82.31v4h17.92l-30.12,28L150.55,93.7l-2.84-3a7.45,7.45,0,0,1-2.87,2.78l2.83,2.94,22.54,23.43L203.3,89.15h0v15.92h4V82.31Zm20.73,4.35-.33-.35h.33v.36Z"/><path class="cls-1" d="M141.28,75.46A11.5,11.5,0,0,0,129.8,87a11.46,11.46,0,0,0,17.87,9.52,11,11,0,0,0,2.88-2.77A11.34,11.34,0,0,0,152.76,87,11.5,11.5,0,0,0,141.28,75.46Zm6.43,15.29a7.47,7.47,0,0,1-13.1-.43A7.35,7.35,0,0,1,133.8,87a7.48,7.48,0,1,1,15,0A7.38,7.38,0,0,1,147.71,90.75Z"/><rect class="cls-1" x="80.21" y="127.21" width="4" height="51.32"/><rect class="cls-1" x="103.84" y="130.51" width="4" height="48.02"/><rect class="cls-1" x="151.1" y="113.96" width="4" height="64.58"/><rect class="cls-1" x="127.47" y="113.96" width="4" height="64.58"/><rect class="cls-1" x="174.73" y="125.74" width="4" height="52.8"/><rect class="cls-1" x="71.23" y="176.54" width="116.48" height="4"/></g></g></svg>